<?xml version="1.0" encoding="UTF-8" standalone="no"?>
<svg width="208px" height="8px" viewBox="0 0 208 8" version="1.1" xmlns="http://www.w3.org/2000/svg" xmlns:xlink="http://www.w3.org/1999/xlink" xmlns:sketch="http://www.bohemiancoding.com/sketch/ns">
    <!-- Generator: Sketch 3.3.1 (12005) - http://www.bohemiancoding.com/sketch -->
    <title>Artboard 1</title>
    <desc>Created with Sketch.</desc>
    <defs></defs>
    <g id="Page-1" stroke="none" stroke-width="1" fill="none" fill-rule="evenodd" sketch:type="MSPage">
        <g id="Artboard-1" sketch:type="MSArtboardGroup" stroke="#776F6F" stroke-width="2">
            <path d="M104.100848,-47.6625066 C107.702148,-51.2637967 107.694016,-57.1107735 104.082684,-60.7220949 M104.06103,-73.7356312 C100.495761,-70.1314704 100.515851,-64.311444 104.11513,-60.7121752 M103.994362,-73.667994 C107.559632,-77.2721554 107.539542,-83.0921818 103.940263,-86.6914506 M105.258881,-100.741119 C101.657581,-97.1398291 100.361377,-90.2928523 103.972709,-86.6815308 M104.254971,4.37961986 C107.856271,0.778329859 107.848139,-5.06864704 104.236807,-8.67996844 M104.215153,-21.6935047 C100.649884,-18.0893439 100.669975,-12.2693175 104.269254,-8.67004874 M104.148486,-21.6258675 C107.713755,-25.2300289 107.693665,-31.0500553 104.094386,-34.6493241 M104.108668,-47.6989926 C100.507368,-44.0977026 100.5155,-38.2507258 104.126832,-34.6394044 M104.409093,56.4582319 C108.010394,52.8569419 108.002262,47.0099659 104.39093,43.3986439 M104.369276,30.3851079 C100.804007,33.9892689 100.824097,39.8092949 104.423376,43.4085639 M104.302608,30.4527449 C107.867878,26.8485839 107.847787,21.0285569 104.248508,17.4292879 M104.262791,4.37961986 C100.66149,7.98090986 100.669622,13.8278869 104.280954,17.4392079 M104.258881,108.741119 C107.860181,105.139829 108.156385,99.0520919 104.545053,95.4407709 M104.523399,82.4272339 C100.95813,86.0313949 100.97822,91.8514219 104.577499,95.4506899 M104.456731,82.4948719 C108.022001,78.8907099 108.001911,73.0706839 104.402631,69.4714149 M104.416914,56.4217459 C100.815614,60.0230359 100.823746,65.8700129 104.435078,69.4813349" id="Path-Copy" sketch:type="MSShapeGroup" transform="translate(104.258881, 4.000000) rotate(-270.000000) translate(-104.258881, -4.000000) "></path>
        </g>
    </g>
</svg>