<?xml version="1.0" encoding="UTF-8" standalone="no"?>
<svg width="8px" height="208px" viewBox="0 0 8 208" version="1.1" xmlns="http://www.w3.org/2000/svg" xmlns:xlink="http://www.w3.org/1999/xlink" xmlns:sketch="http://www.bohemiancoding.com/sketch/ns">
    <!-- Generator: Sketch 3.3.1 (12005) - http://www.bohemiancoding.com/sketch -->
    <title>Artboard 1</title>
    <desc>Created with Sketch.</desc>
    <defs></defs>
    <g id="Page-1" stroke="none" stroke-width="1" fill="none" fill-rule="evenodd" sketch:type="MSPage">
        <g id="Artboard-1" sketch:type="MSArtboardGroup" stroke-opacity="0.1" stroke="#776F6F">
            <path d="M3.84196695,52.0786125 C7.4432673,48.4773224 7.43513519,42.6303456 3.82380336,39.0190242 M3.80214913,26.0054879 C0.236880056,29.6096487 0.256970399,35.4296751 3.85624958,39.0289439 M3.73548149,26.0731251 C7.30075114,22.4689637 7.28066082,16.6489373 3.68138162,13.0496685 M5,-1 C1.39869966,2.60129 0.102496029,9.4482668 3.71382785,13.0595883 M3.99609017,104.120739 C7.59739052,100.519449 7.58925841,94.6724721 3.97792658,91.0611507 M3.95627235,78.0476144 C0.391003282,81.6517752 0.411093625,87.4718016 4.0103728,91.0710704 M3.88960472,78.1152516 C7.45487437,74.5110902 7.43478404,68.6910638 3.83550484,65.091795 M3.84978747,52.0421265 C0.248487133,55.6434165 0.256619255,61.4903933 3.86795107,65.1017147 M4.15021252,156.199351 C7.75151286,152.598061 7.74338076,146.751085 4.13204892,143.139763 M4.11039469,130.126227 C0.545125623,133.730388 0.565215965,139.550414 4.16449515,143.149683 M4.04372706,130.193864 C7.60899671,126.589703 7.58890639,120.769676 3.98962719,117.170407 M4.00390982,104.120739 C0.402609473,107.722029 0.410741595,113.569006 4.02207341,117.180327 M4,208.482238 C7.60130035,204.880948 7.89750398,198.793211 4.28617215,195.18189 M4.26451792,182.168353 C0.699248849,185.772514 0.719339191,191.592541 4.31861837,195.191809 M4.19785028,182.235991 C7.76311993,178.631829 7.74302961,172.811803 4.14375041,169.212534 M4.15803304,156.162865 C0.556732699,159.764155 0.564864821,165.611132 4.17619664,169.222454" id="Path-Copy" sketch:type="MSShapeGroup"></path>
        </g>
    </g>
</svg>